<?xml version="1.0" standalone="no"?>
<!DOCTYPE svg PUBLIC "-//W3C//DTD SVG 20010904//EN"
 "http://www.w3.org/TR/2001/REC-SVG-20010904/DTD/svg10.dtd">
<svg version="1.0" xmlns="http://www.w3.org/2000/svg"
 width="300.000000pt" height="300.000000pt" viewBox="0 0 300.000000 300.000000"
 preserveAspectRatio="xMidYMid meet">

<g transform="translate(0.000000,300.000000) scale(0.100000,-0.100000)"
fill="#575757" stroke="none">
<path d="M1325 2989 c-101 -12 -258 -50 -356 -88 -209 -81 -351 -174 -520
-341 -133 -131 -214 -241 -289 -390 -324 -651 -138 -1435 447 -1874 97 -73
306 -182 423 -220 161 -53 272 -70 465 -70 270 -1 451 42 683 159 294 149 519
378 663 670 68 139 99 229 130 375 33 150 33 428 0 580 -42 199 -117 380 -227
546 -77 118 -289 330 -404 406 -309 203 -654 286 -1015 247z m467 -69 c569
-120 1005 -557 1130 -1133 32 -147 32 -427 0 -574 -127 -585 -558 -1012 -1152
-1139 -129 -28 -419 -26 -557 4 -137 30 -257 73 -381 137 -389 202 -659 560
-754 998 -31 147 -31 427 0 574 45 207 138 417 257 574 83 111 251 272 356
341 198 131 415 211 659 242 83 10 347 -4 442 -24z"/>
<path d="M1595 2866 c-4 -14 -35 -237 -35 -253 0 -7 11 -13 24 -13 24 0 36 28
36 87 0 22 3 23 38 17 56 -10 63 -20 56 -75 -6 -48 -6 -49 19 -49 23 0 27 5
33 47 4 30 3 53 -5 66 -11 16 -9 22 8 38 28 26 28 80 1 104 -25 23 -170 48
-175 31z m133 -59 c16 -13 15 -42 -3 -57 -9 -8 -28 -10 -55 -5 -43 7 -43 7
-34 53 6 29 8 30 43 25 20 -3 42 -10 49 -16z"/>
<path d="M1215 2846 c-48 -21 -68 -51 -73 -110 -8 -94 46 -162 127 -160 80 2
131 55 131 134 0 113 -89 178 -185 136z m80 -36 c51 -19 71 -117 34 -164 -17
-22 -28 -26 -57 -24 -89 7 -115 175 -29 191 12 2 23 5 24 6 1 0 13 -3 28 -9z"/>
<path d="M1953 2656 l-62 -124 70 -32 c85 -39 125 -36 175 14 55 55 63 137 17
188 -14 16 -122 78 -135 78 -2 0 -31 -56 -65 -124z m152 28 c31 -29 33 -76 5
-121 -28 -47 -85 -56 -133 -21 -17 13 -16 18 24 94 46 89 56 93 104 48z"/>
<path d="M798 2687 c-32 -18 -58 -35 -58 -38 0 -3 30 -59 66 -123 l66 -117 56
31 c68 37 102 73 102 104 0 30 -36 76 -59 76 -14 0 -17 6 -13 29 5 39 -27 71
-70 70 -18 0 -59 -15 -90 -32z m100 -19 c21 -21 13 -46 -25 -68 -38 -22 -38
-22 -64 22 -8 14 -3 21 28 37 46 24 46 24 61 9z m72 -107 c14 -28 3 -49 -40
-71 l-37 -19 -17 36 c-9 19 -16 36 -14 38 59 41 91 46 108 16z"/>
<path d="M2303 2441 l-93 -97 68 -67 c61 -60 70 -66 86 -54 17 12 15 17 -35
65 l-54 51 27 27 27 28 51 -43 c45 -38 53 -42 66 -29 13 13 9 20 -31 57 -25
23 -45 45 -45 50 0 4 9 16 20 26 20 18 21 18 68 -28 26 -26 50 -47 54 -47 3 0
9 8 12 17 5 12 -11 35 -56 80 -34 35 -65 62 -68 62 -3 -1 -47 -45 -97 -98z"/>
<path d="M1323 2506 c-381 -73 -681 -337 -796 -701 -70 -222 -59 -490 30 -696
132 -308 386 -524 713 -605 115 -29 365 -27 480 4 92 25 196 69 273 115 45 28
47 30 32 47 -16 18 -19 17 -77 -17 -77 -45 -193 -87 -299 -109 -122 -25 -322
-15 -444 21 -297 88 -524 293 -638 575 -135 338 -61 748 185 1017 113 123 310
242 473 284 121 32 313 37 435 11 374 -77 651 -342 756 -722 26 -93 26 -367 0
-460 -42 -155 -111 -288 -202 -396 -41 -48 -54 -71 -54 -96 l0 -32 36 35 c118
114 225 307 270 489 29 113 26 364 -5 480 -41 156 -130 320 -240 442 -117 130
-328 255 -501 298 -110 28 -324 35 -427 16z"/>
<path d="M1160 2333 c1 -31 31 -128 49 -159 20 -33 21 -38 7 -46 -22 -12 -21
-19 18 -77 19 -28 30 -53 25 -56 -14 -9 -11 -19 17 -60 17 -26 22 -41 15 -48
-11 -11 16 -67 32 -67 5 0 6 -8 2 -18 -3 -11 3 -30 16 -46 12 -15 19 -30 16
-33 -6 -5 25 -53 67 -106 14 -18 16 -18 73 2 32 12 85 25 118 29 l60 8 -62 12
c-52 11 -63 17 -63 33 0 20 4 23 53 33 39 9 54 46 38 91 -17 47 -8 58 35 40
18 -7 34 -11 34 -6 0 15 -214 233 -299 304 -89 76 -228 177 -243 177 -4 0 -8
-3 -8 -7z"/>
<path d="M381 2273 c-74 -38 -101 -122 -59 -182 34 -51 71 -73 126 -79 44 -4
52 -1 85 28 61 53 67 131 15 188 -49 52 -117 70 -167 45z m107 -63 c59 -36 68
-103 17 -136 -34 -22 -85 -11 -124 25 -35 33 -41 73 -15 109 20 28 77 30 122
2z"/>
<path d="M2546 2169 c-60 -32 -111 -61 -113 -63 -3 -2 0 -14 7 -25 l11 -21 48
25 49 24 16 -24 c26 -40 20 -62 -24 -90 -35 -22 -39 -28 -30 -45 6 -11 13 -20
16 -20 20 0 85 47 90 65 4 17 11 20 43 17 32 -3 42 1 60 23 11 15 21 37 21 49
0 24 -61 138 -76 142 -5 2 -58 -24 -118 -57z m144 -81 c0 -23 -30 -39 -52 -27
-17 9 -53 68 -46 74 2 1 17 9 33 18 30 15 30 15 47 -16 9 -18 17 -40 18 -49z"/>
<path d="M175 1892 c-3 -3 -5 -13 -5 -23 0 -14 16 -21 78 -34 42 -9 86 -19 96
-22 13 -4 -17 -18 -89 -42 -97 -32 -110 -39 -118 -64 -5 -16 -7 -30 -4 -33 2
-2 63 -17 135 -32 130 -28 131 -28 136 -8 7 27 2 29 -112 51 l-97 19 121 38
c117 37 122 39 126 68 4 25 1 31 -16 35 -129 29 -246 51 -251 47z"/>
<path d="M2744 1830 c-24 -9 -44 -57 -44 -102 0 -57 -37 -87 -68 -56 -17 17
-15 73 3 88 17 14 19 29 5 50 -7 12 -13 11 -34 -10 -22 -19 -26 -33 -26 -76 0
-88 64 -139 130 -104 21 11 40 67 40 117 0 41 30 61 54 37 20 -20 20 -53 0
-75 -16 -18 -12 -59 6 -59 17 0 50 53 50 82 0 40 -24 94 -48 107 -24 13 -39
13 -68 1z"/>
<path d="M1773 1712 c0 -37 -4 -96 -8 -132 -5 -50 -3 -70 8 -84 13 -18 14 -15
10 31 -7 69 16 93 87 93 54 0 94 -15 123 -47 17 -19 15 -22 -47 -81 -54 -52
-61 -62 -42 -62 13 0 40 -12 62 -26 l38 -26 -27 35 c-15 20 -27 40 -27 44 0
13 64 73 78 73 18 0 15 9 -14 47 -32 43 -76 65 -143 72 l-54 6 -11 45 c-21 82
-32 86 -33 12z"/>
<path d="M800 1635 c-8 -2 -47 -8 -85 -15 -109 -17 -103 -25 19 -25 61 -1 175
-7 254 -14 78 -8 145 -11 148 -8 4 3 -15 20 -42 36 -47 30 -51 31 -163 30 -64
-1 -123 -3 -131 -4z"/>
<path d="M1179 1582 c32 -31 63 -65 68 -75 9 -17 16 -15 87 29 67 42 75 49 57
56 -26 9 -160 35 -223 42 l-47 5 58 -57z"/>
<path d="M1910 1576 c0 -9 7 -16 16 -16 17 0 14 22 -4 28 -7 2 -12 -3 -12 -12z"/>
<path d="M1087 1539 c19 -19 87 -38 98 -28 16 16 -24 39 -69 39 -28 0 -37 -3
-29 -11z"/>
<path d="M1380 1523 c-18 -7 -35 -11 -38 -9 -2 3 -16 -7 -30 -21 -46 -46 -95
-60 -177 -50 -33 5 -36 4 -20 -6 11 -6 27 -17 35 -25 9 -10 15 -11 18 -3 2 6
13 11 25 11 12 0 47 12 77 27 30 14 60 27 66 29 7 1 21 11 33 23 28 28 55 26
70 -5 10 -22 9 -31 -5 -51 -9 -14 -19 -52 -21 -84 -3 -33 -10 -59 -15 -59 -5
0 -4 -9 2 -19 14 -28 12 -83 -5 -104 -7 -11 -11 -25 -8 -33 3 -8 -2 -25 -11
-39 -25 -37 -11 -30 20 11 23 29 27 44 25 85 -1 27 1 55 6 62 11 18 13 37 3
37 -16 0 3 104 26 148 27 50 24 64 -15 79 -22 8 -36 7 -61 -4z"/>
<path d="M1165 1485 c-39 -11 -39 -11 -13 -18 32 -8 70 4 60 19 -5 8 -18 8
-47 -1z"/>
<path d="M1294 1413 c20 -93 27 -138 22 -156 -6 -24 -1 -18 46 53 20 30 39 72
42 93 l7 37 -62 0 -61 0 6 -27z"/>
<path d="M1456 1424 c-5 -12 -2 -15 10 -10 8 3 18 6 20 6 2 0 4 5 4 10 0 16
-27 11 -34 -6z"/>
<path d="M1215 1395 c-14 -13 -25 -34 -25 -47 0 -21 2 -20 34 11 19 19 32 40
29 47 -7 19 -10 18 -38 -11z"/>
<path d="M1550 1399 c37 -70 94 -149 106 -149 8 0 14 -7 14 -15 0 -26 30 -77
43 -72 7 2 23 -19 37 -47 20 -41 29 -51 48 -49 12 2 22 -3 22 -10 0 -28 49
-117 62 -112 9 4 20 -7 30 -27 25 -53 68 -99 87 -94 11 4 21 -6 33 -32 21 -46
103 -140 113 -130 13 13 -14 267 -40 383 -23 102 -49 191 -75 259 -9 25 -12
27 -23 14 -7 -8 -19 -18 -28 -21 -26 -9 -94 28 -128 70 l-32 40 -55 -8 c-51
-7 -133 0 -198 16 -27 7 -28 7 -16 -16z"/>
<path d="M2612 1375 c-18 -22 -50 -150 -40 -160 2 -2 62 -15 133 -28 127 -23
130 -23 138 -4 11 28 3 34 -53 41 -46 6 -50 9 -50 34 0 49 21 66 79 63 48 -2
51 -1 51 22 0 22 -5 25 -47 30 -27 3 -56 1 -66 -5 -15 -7 -24 -5 -41 11 -31
29 -79 28 -104 -4z m87 -43 c12 -22 -1 -87 -17 -86 -7 1 -24 2 -38 3 -25 1
-26 4 -21 37 3 20 11 42 18 50 16 19 46 18 58 -4z"/>
<path d="M243 1352 c-94 -21 -113 -29 -113 -44 0 -29 18 -30 120 -4 52 13 96
23 97 22 2 -1 -41 -27 -95 -57 -77 -44 -96 -59 -94 -74 2 -11 5 -21 7 -23 1
-1 51 -7 110 -12 59 -5 109 -11 111 -12 1 -2 -44 -14 -102 -27 -97 -22 -104
-26 -98 -45 4 -12 8 -22 9 -24 1 -1 51 9 111 23 60 14 119 27 131 30 19 5 22
10 16 38 -3 17 -8 34 -10 37 -2 3 -52 9 -111 15 l-107 10 87 48 c48 26 90 52
93 58 4 5 4 23 0 39 -8 37 -13 37 -162 2z"/>
<path d="M1236 1351 c-16 -17 -50 -110 -43 -117 7 -7 77 99 77 117 0 24 -12
24 -34 0z"/>
<path d="M1236 1247 c-20 -31 -58 -101 -83 -154 -26 -53 -69 -126 -95 -161
-27 -35 -47 -67 -44 -69 9 -9 63 36 103 85 131 158 182 262 164 330 -8 26 -9
26 -45 -31z"/>
<path d="M2485 1010 c-21 -44 -37 -81 -34 -83 2 -2 57 -32 121 -66 l118 -62
42 85 c39 80 41 87 26 102 -15 15 -19 12 -48 -47 -18 -35 -34 -65 -35 -67 -4
-4 -65 27 -65 33 0 3 12 30 27 60 24 48 25 57 13 65 -23 15 -25 14 -55 -49
l-28 -60 -29 15 c-15 8 -28 17 -28 20 0 2 13 31 30 63 25 50 27 60 14 65 -27
10 -29 8 -69 -74z"/>
<path d="M393 898 c-117 -28 -122 -30 -112 -50 9 -17 17 -19 50 -14 36 6 40 4
64 -31 30 -45 30 -51 6 -83 -14 -18 -17 -29 -10 -42 5 -10 14 -18 18 -18 5 0
47 50 94 111 83 108 85 112 70 135 -19 30 -29 29 -180 -8z m101 -62 c-21 -25
-39 -46 -41 -46 -5 0 -35 62 -31 65 6 5 103 32 107 29 1 -2 -14 -23 -35 -48z"/>
<path d="M2329 773 c-90 -95 -94 -100 -79 -118 12 -14 17 -12 45 15 l32 31 82
-76 c81 -74 83 -76 102 -59 20 18 18 20 -66 97 l-86 80 27 28 c24 25 28 59 7
59 -5 0 -33 -26 -64 -57z"/>
<path d="M625 614 c-71 -86 -85 -107 -75 -119 7 -8 16 -15 20 -15 4 0 36 36
71 79 35 44 65 78 67 77 1 -2 -6 -54 -18 -117 l-20 -113 23 -24 23 -23 88 106
c71 86 85 109 75 121 -6 8 -15 14 -19 14 -4 0 -34 -32 -65 -70 -32 -39 -60
-69 -62 -66 -3 2 2 46 11 97 21 120 20 124 -8 143 -25 16 -25 15 -111 -90z"/>
<path d="M2084 570 c-11 -4 -33 -23 -48 -41 -31 -37 -29 -72 6 -101 24 -21 39
-22 108 -6 44 10 53 9 67 -4 19 -20 12 -42 -22 -64 -21 -14 -31 -15 -51 -5
-20 9 -30 8 -45 -3 -20 -14 -20 -14 3 -30 85 -60 221 57 158 137 -24 31 -65
35 -132 15 -32 -9 -41 -9 -54 4 -31 30 24 80 65 58 13 -6 24 -5 37 5 19 15 19
15 0 30 -22 16 -59 19 -92 5z"/>
<path d="M1008 465 c-56 -31 -94 -141 -66 -195 35 -66 133 -91 185 -46 l28 24
-28 7 c-17 5 -33 3 -40 -4 -16 -16 -49 -14 -76 5 -21 15 -23 23 -19 71 8 88
70 137 125 98 12 -8 23 -25 25 -36 2 -12 13 -26 26 -30 19 -7 22 -5 22 19 0
77 -106 128 -182 87z"/>
<path d="M1783 437 c-46 -11 -83 -26 -83 -32 0 -15 61 -248 66 -254 2 -2 44 7
94 19 74 18 90 26 90 41 0 23 -16 24 -90 4 -30 -8 -56 -13 -57 -11 -2 2 -6 19
-10 39 -6 38 -10 35 75 57 40 10 55 31 32 45 -5 3 -35 -2 -66 -11 -61 -18 -74
-12 -74 32 0 17 10 23 53 33 65 14 79 23 71 44 -3 9 -9 17 -13 16 -3 -1 -43
-11 -88 -22z"/>
<path d="M1335 396 c-2 -6 -6 -68 -9 -138 l-6 -128 24 0 c23 0 26 5 32 60 l7
60 42 0 c70 0 75 -5 75 -71 0 -56 1 -59 25 -59 24 0 25 2 25 63 0 35 3 98 6
140 l7 77 -27 0 c-21 0 -26 -5 -26 -24 0 -13 -3 -38 -6 -55 -6 -31 -7 -31 -66
-31 l-60 0 4 54 c3 51 1 55 -20 59 -13 3 -25 -1 -27 -7z"/>
</g>
</svg>
