<?xml version="1.0" encoding="UTF-8" standalone="no"?>
<!DOCTYPE svg PUBLIC "-//W3C//DTD SVG 1.1//EN" "http://www.w3.org/Graphics/SVG/1.1/DTD/svg11.dtd">
<svg width="100%" height="100%" viewBox="0 0 800 800" version="1.1" xmlns="http://www.w3.org/2000/svg" xmlns:xlink="http://www.w3.org/1999/xlink" xml:space="preserve" xmlns:serif="http://www.serif.com/" style="fill-rule:evenodd;clip-rule:evenodd;stroke-linejoin:round;stroke-miterlimit:2;">
    <g transform="matrix(1.46255,0,0,1.46671,-185.327,-230.683)">
        <path d="M147.14,546.75L166.14,546.75L166.14,595.17L178.29,595.17L178.29,546.75L197.37,546.75L197.37,535.75L147.14,535.75L147.14,546.75ZM268.76,595.17L268.76,568.71C268.76,556.02 261.02,549.63 249.68,549.63C242.126,549.478 234.922,552.88 230.24,558.81L236.54,566.28C240.23,562.41 243.54,560.16 248.33,560.16C253.82,560.16 256.61,563.16 256.61,567.99L256.61,569.99L245.45,569.99C235.19,569.99 228.62,574.85 228.62,582.99C228.62,590.55 234.29,596.31 244.01,596.31C249.092,596.482 254.022,594.523 257.6,590.91L257.6,595.23L268.76,595.17ZM256.61,578.52C256.61,583.74 252.38,587.34 247.25,587.34C243.47,587.34 240.86,585.54 240.86,582.48C240.86,579.42 243.11,577.98 247.07,577.98L256.61,577.98L256.61,578.52ZM345.92,586.26C341.16,586.26 337.02,583.92 333.42,580.26L327.29,587.64C331.29,592.86 337.83,596.28 345.75,596.28C355.47,596.28 363.12,591.28 363.12,582.06C363.12,575.13 358.62,571.71 350.61,568.47L346.29,566.67C343.04,565.41 341.6,564.51 341.6,562.67C341.6,560.51 343.5,559.52 346.38,559.52C350.13,559.601 353.71,561.116 356.38,563.75L362.5,556.28C358.45,551.78 352.96,549.53 346.5,549.53C337.05,549.53 330.11,554.39 330.11,562.94C330.11,569.94 334.7,573.47 342.26,576.53L347.04,578.53C349.74,579.7 351.63,580.53 351.63,582.58C351.6,585.09 349,586.26 345.92,586.26ZM209.44,556L209.44,550.6L198.28,550.6L198.28,595.15L210.43,595.15L210.43,572.94C210.43,564.94 215.38,561.33 222.43,561.33L225.67,561.33L225.67,550.62C224.374,550.229 223.024,550.047 221.67,550.08C216.89,550.009 212.349,552.207 209.44,556ZM254.79,266.25L257.79,365.69L566.66,329.41L569.59,359.29L621,284.67L555,253.51L566.64,290.3L254.79,266.25ZM415.33,585.45C408.22,585.45 404,581.31 400.76,576.81L392.38,583.11C397.004,591.387 405.852,596.453 415.33,596.25C427.13,596.25 436.13,589.5 436.13,578.43C436.13,569.97 430.82,565.2 421.46,561.06L414.71,558.06C410.39,556.06 407.78,554.64 407.78,551.22C407.78,547.22 411.2,545.46 415.16,545.46C420.02,545.46 423.62,547.98 426.5,552.3L434.78,545.91C431.27,539.43 424.61,534.66 415.16,534.66C404,534.66 395.44,541.23 395.44,551.49C395.44,559.86 401.39,564.72 409.85,568.59L416.24,571.47C420.92,573.63 423.8,574.98 423.8,578.85C423.8,583 420.56,585.45 415.33,585.45ZM253,206.75L496.83,226.08L555,253.51L528.85,175.2L265,175.2L212.5,263L254.79,266.26L253,206.75ZM565,570.33C565,558.81 556.54,549.63 544,549.63C543.896,549.629 543.792,549.628 543.688,549.628C531.07,549.628 520.688,560.01 520.688,572.628C520.688,572.732 520.689,572.836 520.69,572.94C520.69,586.08 530.95,596.25 545.08,596.25C551.627,596.254 557.96,593.887 562.9,589.59L557.9,581.31C554.405,584.199 550.015,585.79 545.48,585.81C539.09,585.81 534.41,582.66 532.88,576.99L564.2,576.99C564.705,574.805 564.973,572.572 565,570.33ZM532.87,568.44C534.31,562.86 538.45,559.44 543.58,559.44C548.71,559.44 553.12,562.77 553.21,568.44L532.87,568.44ZM259.87,436.52L257.77,365.71L241.36,367.64L233.17,460.45L577.87,448.62L569.57,359.31L550.1,387.55L259.87,436.52ZM579.54,639.17L565.14,639.17L549.14,658.25L549.14,616.25L537,616.25L537,683.76L549.15,683.76L549.15,659.15L567,683.73L580.86,683.73L562.8,658.88L579.54,639.17ZM514.1,644.57L514.1,639.17L502.94,639.17L502.94,683.73L515.09,683.73L515.09,661.49C515.09,653.49 520.04,649.88 527.09,649.88L530.33,649.88L530.33,639.17C529.034,638.779 527.684,638.597 526.33,638.63C521.547,638.564 517.005,640.77 514.1,644.57ZM507.53,595.17L507.53,560.88L517.34,560.88L517.34,550.62L507.53,550.62L507.53,544.41C507.53,539.28 510.23,537.48 515.63,537.48C516.835,537.487 518.038,537.577 519.23,537.75L519.23,527.58C517.076,526.902 514.829,526.564 512.57,526.58C502.22,526.58 495.38,531.89 495.38,543.32L495.38,550.61L489.08,550.61L489.08,560.87L495.38,560.87L495.38,595.16L507.53,595.17ZM640.53,550.62L628.92,579.87L618,550.62L605.12,550.62L622.22,592.56L620.87,595.56C618.62,600.56 615.47,601.56 611.6,601.56C610.16,601.56 608.45,601.38 606.38,601.2L606.38,611.38C608.936,612.057 611.566,612.416 614.21,612.45C622.58,612.45 627.89,608.22 631.94,599.04L653.28,550.62L640.53,550.62ZM264.17,659.69L229.7,623.24L225.7,623.24L225.7,683.73L237.85,683.73L237.85,648.09L272.23,684.8L276.28,684.8L276.28,624.32L264.17,624.32L264.17,659.69ZM588.1,578.43L588.1,560.88L600.7,560.88L600.7,550.62L588.1,550.62L588.1,539.37L576,539.37L576,550.62L569,550.62L569,560.88L576,560.88L576,579.51C576,590.94 582.84,596.25 593.82,596.25C596.644,596.242 599.456,595.879 602.19,595.17L602.19,585C599.85,585.18 597.87,585.36 596.43,585.36C590.8,585.36 588.1,583.56 588.1,578.43ZM470.43,638.18C457.11,638.18 446.58,648.26 446.58,661.4C446.58,674.54 457.11,684.72 470.34,684.72C483.57,684.72 494.34,674.64 494.34,661.4C494.34,648.16 483.57,638.18 470.43,638.18ZM470.43,673.55C463.68,673.55 458.91,668.55 458.91,661.49C458.91,654.43 463.68,649.25 470.43,649.25C477,649.25 481.95,654.48 481.95,661.49C481.95,668.5 477,673.55 470.43,673.55ZM308.56,638.18C308.456,638.179 308.352,638.178 308.248,638.178C295.63,638.178 285.248,648.56 285.248,661.178C285.248,661.282 285.249,661.386 285.25,661.49C285.25,674.64 295.51,684.8 309.64,684.8C316.186,684.807 322.519,682.444 327.46,678.15L322.46,669.86C318.955,672.761 314.549,674.355 310,674.37C303.61,674.37 298.93,671.21 297.4,665.54L328.72,665.54C329.229,663.356 329.5,661.123 329.53,658.88C329.53,647.36 321.07,638.18 308.56,638.18ZM297.4,657C298.84,651.42 302.98,648 308.11,648C313.24,648 317.65,651.33 317.74,657L297.4,657ZM291.73,569.17C291.73,564.04 295.24,560.53 300.19,560.53C305.14,560.53 308.47,564.04 308.47,569.17L308.47,595.17L320.53,595.17L320.53,567.54C320.53,556.83 314.23,549.63 303.79,549.63C298.949,549.486 294.246,551.288 290.74,554.63L290.74,550.63L279.58,550.63L279.58,595.18L291.73,595.18L291.73,569.17ZM471.33,590.85L471.33,595.18L482.49,595.18L482.49,568.71C482.49,556.02 474.75,549.63 463.41,549.63C455.866,549.488 448.676,552.888 444,558.81L450.3,566.28C453.99,562.41 457.3,560.16 462.09,560.16C467.58,560.16 470.37,563.16 470.37,567.99L470.37,569.99L459.18,569.99C448.92,569.99 442.35,574.85 442.35,582.99C442.35,590.55 448.02,596.31 457.74,596.31C462.831,596.466 467.762,594.485 471.33,590.85ZM454.59,582.49C454.59,579.49 456.84,577.99 460.8,577.99L470.34,577.99L470.34,578.53C470.34,583.75 466.11,587.35 460.98,587.35C457.2,587.34 454.59,585.54 454.59,582.48L454.59,582.49ZM421.59,664.02L409.26,638.19L405.26,638.19L393.1,664.56L382.48,639.17L369.69,639.17L390.4,684.8L394.4,684.8L407.18,658.88L420,684.8L424,684.8L444.7,639.17L431.89,639.17L421.59,664.02ZM352.73,667.02L352.73,649.44L365.33,649.44L365.33,639.17L352.73,639.17L352.73,627.92L340.53,627.92L340.53,639.17L333.53,639.17L333.53,649.44L340.53,649.44L340.53,668.07C340.53,679.5 347.37,684.8 358.35,684.8C361.174,684.795 363.986,684.436 366.72,683.73L366.72,673.55C364.38,673.74 362.4,673.92 360.96,673.92C355.38,673.92 352.68,672.11 352.68,667L352.73,667.02Z" style="fill:#575757;fill-rule:nonzero;"/>
    </g>
</svg>
